<svg xmlns="http://www.w3.org/2000/svg" width="512" height="512" viewBox="0 0 512 512">
  <defs>
    <linearGradient id="bg" x1="0" y1="0" x2="1" y2="1">
      <stop offset="0%" stop-color="#c62828"/>
      <stop offset="100%" stop-color="#e53935"/>
    </linearGradient>
  </defs>
  <rect width="512" height="512" rx="80" fill="url(#bg)"/>
  <!-- Sound wave arcs -->
  <path d="M 180 320 A 100 100 0 0 1 332 320" fill="none" stroke="white" stroke-width="12" stroke-linecap="round"/>
  <path d="M 150 350 A 140 140 0 0 1 362 350" fill="none" stroke="white" stroke-width="10" stroke-linecap="round" opacity="0.6"/>
  <path d="M 120 380 A 180 180 0 0 1 392 380" fill="none" stroke="white" stroke-width="8" stroke-linecap="round" opacity="0.35"/>
  <!-- Building / pagoda silhouette -->
  <rect x="220" y="140" width="72" height="24" rx="2" fill="white"/>
  <rect x="210" y="170" width="92" height="28" rx="2" fill="white"/>
  <rect x="200" y="204" width="112" height="32" rx="2" fill="white"/>
  <rect x="232" y="238" width="48" height="100" rx="2" fill="white"/>
  <!-- Base -->
  <rect x="180" y="342" width="152" height="18" rx="4" fill="white" opacity="0.7"/>
  <!-- Door -->
  <rect x="240" y="280" width="32" height="58" rx="16" fill="#c62828"/>
</svg>
